PathFileType	3	(X/Y/Z)	D:\Jess\PFP\Labelled\PA09\20250730\SRRun01.trc
DataRate	CameraRate	NumFrames	NumMarkers	Units	OrigDataRate	OrigDataStartFrame	OrigNumFrames
250.0	250.0	4	37	mm	250.0	35937	2501
Frame#	Time	C7			T10			CLAV			LSHO			RSHO			LASIS			RASIS			LPSIS			RPSIS			LILCR			RILCR			LGTR			LTHI			LLTHI			LLEP			LMEP			LPSH			LLSH			LDSH			LLMAL			LMMAL			LTOE			L5TH			LHEE			RGTR			RTHI			RLTHI			RLEP			RMEP			RPSH			RLSH			RDSH			RLMAL			RMMAL			RTOE			R5TH			RHEE			
		X1	Y1	Z1	X2	Y2	Z2	X3	Y3	Z3	X4	Y4	Z4	X5	Y5	Z5	X6	Y6	Z6	X7	Y7	Z7	X8	Y8	Z8	X9	Y9	Z9	X10	Y10	Z10	X11	Y11	Z11	X12	Y12	Z12	X13	Y13	Z13	X14	Y14	Z14	X15	Y15	Z15	X16	Y16	Z16	X17	Y17	Z17	X18	Y18	Z18	X19	Y19	Z19	X20	Y20	Z20	X21	Y21	Z21	X22	Y22	Z22	X23	Y23	Z23	X24	Y24	Z24	X25	Y25	Z25	X26	Y26	Z26	X27	Y27	Z27	X28	Y28	Z28	X29	Y29	Z29	X30	Y30	Z30	X31	Y31	Z31	X32	Y32	Z32	X33	Y33	Z33	X34	Y34	Z34	X35	Y35	Z35	X36	Y36	Z36	X37	Y37	Z37	

938	143.744	1162.497795834929	1385.468092626034	-353.6131606319375	1028.668141901227	1163.848721590607	-322.9047143956262	1268.465281110741	1257.247307725244	-383.2570428417036	1174.366957418017	1360.257312349556	-519.0213363687773	1243.940117011289	1349.991452624933	-209.1389216598954	1118.437304163141	951.4950581066303	-440.9741537695858	1121.984063789271	929.5341274197597	-221.1564055762003	976.8669052912239	997.5570487552774	-340.5586482571905	980.8728233384903	994.4522517697599	-308.4809951970292	1067.785211447903	1007.18556377688	-479.862306099142	1103.508905595345	998.3873859568704	-208.9229845683301	1098.789204331653	855.3991700212764	-496.4033441334853	1218.397237956774	724.8813155194315	-450.7168690472022	1165.356265840134	613.0858761969939	-481.5303171724585	1202.672388899028	489.5056362495795	-464.8221828476064	nan	nan	nan	1274.700881912047	408.8507120633234	-418.8914007439861	1204.641484674103	306.1293277899812	-462.5719004277872	1269.974383477159	214.6387017775428	-403.440873789091	1232.023555847864	101.8853434387279	-425.1150663105487	nan	nan	nan	1379.954173254888	95.88816435190847	-406.9304886397414	1363.497570402258	63.97955308187447	-444.4088123916935	1161.578742614846	67.44362190547237	-377.323420498078	1034.325985359927	825.5794689709062	-175.4253603076544	1073.664769985751	636.8906557806513	-269.8420383684196	977.0499028257904	594.4781974954122	-208.7609417065104	897.5471072709173	488.596124680284	-229.9763605520332	nan	nan	nan	842.4969520689507	405.8859030471342	-280.2488326365723	712.6797219306551	439.0255344013596	-215.9984701118127	645.4508588329116	359.0132397944491	-262.2627757241699	518.1489816255352	375.319660186682	-226.7221231648918	nan	nan	nan	518.4212908978682	218.4797723586763	-223.8780931110317	484.9459412565125	238.9414255894419	-184.6833786435143	479.2299857930095	438.8536849059419	-273.6915099465805	
939	143.748	1161.710409765908	1381.889970479143	-354.4554914078891	1028.37324711666	1160.236025446165	-323.3030842919447	1268.0668387596	1253.716517413813	-383.4326555907924	1173.770774288491	1356.147490547177	-520.0068066907751	1242.907435430121	1346.93570171443	-209.315941324579	1118.765119085777	948.314106669484	-441.492613351504	1122.405476053988	925.9613944626888	-221.1907892563212	976.8910121136777	993.3108312550399	-340.3648592724052	980.8330115434613	990.1412283977929	-308.257561473849	1067.872463408609	1003.302386524324	-480.1790184677633	1103.678523206336	994.6061217463817	-208.6563372795499	1099.407758180944	852.038127317402	-496.5118269976958	1220.457336260721	722.8341873618132	-451.7680271558608	1166.892422510544	610.5847259317109	-480.817501279972	1204.3814278103	487.1670919793249	-464.306036957701	nan	nan	nan	1274.93432445471	405.5447252428176	-417.9172917897515	1202.68492885271	304.3381429113823	-461.7076184066988	1265.329423585773	211.577969450144	-402.0776113980848	1223.818740013363	100.4406241447399	-423.9284891590498	nan	nan	nan	1371.620360741691	91.12988594962658	-406.2204636984758	1354.229044178041	60.4115736506273	-444.2577132564329	1152.222263324541	67.96555886658818	-376.5545397910654	1035.34065080692	821.2113386448882	-175.5961265446559	1075.996948478435	633.2213262048915	-269.1326146408485	979.5634227227539	589.7207918109129	-208.6422334985566	901.511128067354	484.0570658185907	-229.6358034777329	nan	nan	nan	845.3463879620452	402.3824756618802	-279.6154248062348	716.2388045131482	438.8721810870763	-215.5168433010404	647.229281730344	360.3233582626506	-261.2662787348834	520.4696791478418	380.1649206726306	-225.9403190893958	nan	nan	nan	517.2367482693419	223.4872860916687	-221.3994345447574	484.2450350944509	245.1362788978881	-182.4659297583916	483.0727583595466	444.1318375525952	-273.6242017427256	
940	143.752	1160.920804285258	1378.290008050406	-355.2723061312763	1028.054536196548	1156.651173748492	-323.7228819955226	1267.683001442696	1250.162858443423	-383.5448011846485	1173.180525614594	1351.991332889271	-520.983293044502	1241.823178578224	1343.832589042955	-209.4199562807065	1118.996038856932	945.1301976193198	-442.0612020944492	1122.777297401793	922.367482355191	-221.2775361658729	976.8860227423455	989.1175961673167	-340.1527352902985	980.7435102065061	985.8687032251861	-308.0181396964794	1067.984792756293	999.4091566636879	-480.5045194787368	1103.867766329291	990.7578050907023	-208.4224744490728	1099.965775395548	848.7592902505181	-496.6638538687151	1222.348869368633	720.7483738637972	-452.7156879197934	1168.373717848421	608.143458103459	-480.222453974246	1206.044724301839	484.9133442194901	-463.8333047024291	nan	nan	nan	1274.938646985129	402.2900667865803	-416.8911694046026	1200.472721258897	302.6931788618325	-460.9085472091264	1260.197714646243	208.6698412492846	-400.7103494662026	1215.009146743898	99.24912728610532	-422.7960198976292	nan	nan	nan	1362.629196468484	86.73537877692384	-405.5257833778637	1344.386448528186	57.22473533336906	-444.1381781169079	1142.295284442876	68.54575085901701	-375.8930977304045	1036.32790039869	816.8342263365676	-175.798018899237	1078.386622645547	629.5797169580728	-268.1618610077027	982.063174468972	584.9917511140101	-208.422809801381	905.60051768848	479.5005680587179	-229.1580917309284	nan	nan	nan	848.4883324344244	398.8354630616398	-278.8744603462018	720.0927233145316	438.5437427750663	-215.0135806803501	649.463318882158	361.4534157944082	-260.272710101292	523.2915363364945	384.7478809705378	-225.2938676192915	nan	nan	nan	516.7211544646295	228.3351973571663	-218.8886575589089	484.2034782744671	251.1597606283676	-180.2635706364201	487.3799708146429	449.0065005348109	-273.7807496330736	
941	143.756	1160.138770237625	1374.692430871177	-356.0611833787521	1027.711185515517	1153.125865087855	-324.1651878978075	1267.314388906526	1246.607130422493	-383.5911867424526	1172.605333762782	1347.81311972731	-521.947744093049	1240.694398363369	1340.698882299844	-209.4508446903067	1119.126747619643	941.9611023111495	-442.674559823249	1123.089861003337	918.7850644667413	-221.4119125220905	976.849585735183	985.0105395998763	-339.9276293883253	980.6009880996029	981.6677076968971	-307.7684966059718	1068.112317040127	995.5344489029426	-480.8382402527182	1104.058370534699	986.8776022963705	-208.2161694755822	1100.454510663573	845.5790269095904	-496.8565208087538	1224.032652877336	718.6245379758766	-453.5391397449242	1169.770827997446	605.7637599869937	-479.7528184240755	1207.615821470598	482.7430554970258	-463.4038937809952	nan	nan	nan	1274.6817238348	399.103776772661	-415.8228862969643	1198.002989993969	301.1897497703929	-460.1780598332446	1254.607058966718	205.9372689383731	-399.351875473874	1205.67162157164	98.31535245651152	-421.7248555482623	nan	nan	nan	1353.054759818927	82.76565930239663	-404.8503951978887	1334.054913598506	54.45591292886387	-444.0407034260605	1131.891045980661	69.16971883025991	-375.3300355796111	1037.284902978692	812.4804674491022	-176.0300403614302	1080.838905769112	625.999604037716	-266.9682136106912	984.5719056823033	580.3240315837052	-208.1095012395197	909.825035242922	474.957830934786	-228.5536349658462	nan	nan	nan	851.9322124906919	395.2656304453109	-278.0358964108318	724.2397924774624	438.0520227928483	-214.4921619333689	652.1515407645328	362.4032891722881	-259.2886550439829	526.6056268917215	389.0522285730613	-224.7824584203852	nan	nan	nan	516.8879706404642	232.9986886242145	-216.3605250927758	484.8347787012375	256.98162661405	-178.0849943194962	492.1233455663304	453.4620096738007	-274.1502506439024	
